<?xml version="1.0" encoding="UTF-8"?>
<svg id="Layer_2" data-name="Layer 2" xmlns="http://www.w3.org/2000/svg" viewBox="0 0 760.69 150.56">
  <defs>
    <style>
      .cls-1 {
        fill: #999;
      }

      .cls-1, .cls-2 {
        fill-rule: evenodd;
      }

      .cls-2 {
        fill: #00335e;
      }
    </style>
  </defs>
  <g id="Layer_1-2" data-name="Layer 1">
    <g>
      <path class="cls-2" d="M204.86,71.86c6.5-6.49,15.45-10.52,25.28-10.52h44.33c2.35,0,4.47-.95,6.01-2.49,1.54-1.54,2.49-3.66,2.49-6.01s-.95-4.47-2.49-6.01-3.66-2.49-6.01-2.49h-44.33c-5.84,0-11.46,.95-16.69,2.71-5.44,1.82-10.49,4.52-15,7.91l-4.14,3.12v-5.18c0-7.16-1.42-13.98-4-20.2-2.68-6.46-6.61-12.28-11.51-17.17-1.87-1.87-3.79-3.54-5.76-5.01C162.57,2.64,149.98-.74,137.69,.15c-12.27,.89-24.23,6.06-33.47,15.3-1.81,1.81-3.48,3.73-5.01,5.76l-2.06,2.74-2.06-2.74c-4.95-6.59-11.36-11.96-18.7-15.64C69.28,2,61.26,.01,52.82,.01,38.29,.01,25.08,5.95,15.51,15.52,5.94,25.09,0,38.3,0,52.84v97.15H16.99V52.84c0-9.85,4.04-18.8,10.53-25.3,6.5-6.5,15.46-10.53,25.3-10.53s18.8,4.04,25.3,10.53c6.5,6.5,10.53,15.46,10.53,25.3v44.33c0,2.35,.95,4.47,2.49,6.01,1.54,1.54,3.66,2.49,6.01,2.49s4.47-.95,6.01-2.49c1.54-1.54,2.49-3.66,2.49-6.01V52.84c0-9.85,4.04-18.8,10.53-25.3,6.5-6.5,15.46-10.53,25.3-10.53s18.8,4.04,25.3,10.53c6.5,6.5,10.53,15.46,10.53,25.3v97.15h16.99v-52.85h.01c0-9.84,4.05-18.8,10.54-25.29h0Zm-54.91,25.31h-.01c0,14.57-5.93,27.77-15.48,37.33-9.56,9.57-22.76,15.49-37.3,15.49s-27.74-5.94-37.31-15.51c-9.57-9.57-15.51-22.78-15.51-37.31V52.84c0-2.35,.95-4.47,2.49-6.01s3.66-2.49,6.01-2.49,4.47,.95,6.01,2.49c1.54,1.54,2.49,3.66,2.49,6.01v44.33c0,9.85,4.04,18.8,10.53,25.3s15.45,10.53,25.3,10.53,18.8-4.05,25.3-10.54c6.52-6.51,10.58-15.48,10.58-25.29h-.01V52.84h.01c0-2.33,.95-4.45,2.48-5.98,1.53-1.53,3.64-2.48,5.98-2.48s4.45,.95,5.98,2.48c1.53,1.53,2.48,3.64,2.48,5.98h.01v44.33h0Zm204.68-44.33c0,2.35,.95,4.47,2.49,6.01s3.66,2.49,6.01,2.49h44.33c9.85,0,18.8,4.04,25.3,10.53,6.5,6.5,10.53,15.45,10.53,25.3s-4.04,18.8-10.53,25.3c-6.5,6.5-15.45,10.53-25.3,10.53h0s-97.15,0-97.15,0v17.01h97.15c14.53-.01,27.74-5.95,37.31-15.52,9.57-9.57,15.51-22.78,15.51-37.31s-5.94-27.74-15.51-37.31c-9.57-9.57-22.78-15.51-37.31-15.51h-44.33c-2.35,0-4.47,.95-6.01,2.49-1.54,1.54-2.49,3.66-2.49,6.01h0Zm-44.33,0c0-9.85-4.04-18.8-10.53-25.3-6.5-6.5-15.46-10.53-25.3-10.53h-61.35c-1.88-3.74-4.04-7.32-6.45-10.7-1.56-2.18-3.22-4.28-4.98-6.29h72.78c8.42,0,16.45,2,23.57,5.57,7.34,3.68,13.75,9.05,18.7,15.63l2.06,2.75,2.06-2.75c4.95-6.59,11.36-11.95,18.7-15.64C346.68,2,354.69,.01,363.13,.01h0S460.28,0,460.28,0V17.01h-97.15c-9.85-.01-18.8,4.03-25.3,10.52-6.5,6.5-10.53,15.46-10.53,25.3s4.04,18.8,10.53,25.3c6.5,6.5,15.45,10.53,25.3,10.53h44.33c2.35,0,4.47,.95,6.01,2.49,1.54,1.54,2.49,3.66,2.49,6.01s-.95,4.47-2.49,6.01-3.66,2.49-6.01,2.49h-44.33c-8.43,0-16.45-1.99-23.57-5.57-7.34-3.68-13.75-9.05-18.7-15.64l-2.06-2.75-2.06,2.75c-4.94,6.59-11.35,11.95-18.7,15.63-7.13,3.58-15.15,5.57-23.57,5.57h0s-52.82,.01-52.82,.01v-8.51c0-2.35,.95-4.47,2.49-6.01,1.54-1.54,3.66-2.49,6.01-2.49h44.33c9.85,0,18.8-4.04,25.3-10.53,6.5-6.5,10.53-15.45,10.53-25.3Z"/>
      <path class="cls-1" d="M491.8,36.25V1.13h3.3l13.2,19.14h-1.84l13.15-19.14h3.3V36.25h-3.77V6.22l1.22,.47-12.91,18.71h-.19l-12.87-18.71,1.18-.47v30.02h-3.77Zm73.2,35.15v-3.54h4.71v3.54h-4.71Zm5.04,21.73h3.53v-21.73h6.17v-3.54h-6.17v-2.26c0-1.79,.5-3.05,1.51-3.77,1.01-.72,2.26-1.08,3.77-1.08,.16,0,.42,0,.8,.02,.38,.02,.68,.05,.9,.12v-3.21c-.25-.06-.58-.12-.99-.17-.41-.05-.77-.07-1.08-.07-1.48,0-2.86,.31-4.15,.94-1.29,.63-2.33,1.55-3.11,2.76-.79,1.21-1.18,2.69-1.18,4.45v2.26h-5.04v3.54h5.04v21.73h0Zm26.02,.57c-2.36,0-4.49-.57-6.39-1.72-1.9-1.15-3.4-2.73-4.5-4.74-1.1-2.01-1.65-4.29-1.65-6.83s.53-4.8,1.6-6.76c1.07-1.96,2.52-3.51,4.36-4.64,1.84-1.13,3.9-1.7,6.2-1.7,1.82,0,3.45,.34,4.88,1.01,1.43,.68,2.65,1.59,3.65,2.73,1.01,1.15,1.77,2.44,2.31,3.86,.53,1.43,.8,2.9,.8,4.41,0,.31-.02,.67-.05,1.06-.03,.39-.08,.79-.14,1.2h-21.35v-3.3h19.32l-1.7,1.41c.28-1.73,.09-3.28-.59-4.64-.68-1.37-1.64-2.45-2.9-3.25-1.26-.8-2.67-1.2-4.24-1.2s-3.02,.41-4.36,1.23c-1.34,.82-2.38,1.96-3.13,3.42-.75,1.46-1.05,3.2-.9,5.21-.16,2.01,.17,3.76,.97,5.25,.8,1.49,1.9,2.65,3.3,3.46,1.4,.82,2.9,1.23,4.5,1.23,1.85,0,3.41-.44,4.67-1.32,1.26-.88,2.28-1.98,3.06-3.3l3.02,1.6c-.5,1.13-1.27,2.18-2.31,3.13-1.04,.96-2.27,1.73-3.7,2.31-1.43,.58-3.01,.87-4.74,.87h0Zm26.25,0c-2.42,0-4.54-.61-6.36-1.84-1.82-1.23-3.14-2.89-3.96-5l2.97-1.41c.72,1.54,1.74,2.76,3.04,3.68,1.3,.91,2.74,1.37,4.31,1.37s2.78-.37,3.82-1.11c1.04-.74,1.56-1.7,1.56-2.9,0-.88-.25-1.58-.75-2.1-.5-.52-1.08-.92-1.74-1.2-.66-.28-1.24-.49-1.74-.61l-3.63-1.04c-2.33-.66-4.01-1.59-5.04-2.78-1.04-1.19-1.56-2.58-1.56-4.15,0-1.48,.38-2.76,1.13-3.86,.75-1.1,1.77-1.95,3.06-2.54,1.29-.6,2.72-.9,4.29-.9,2.14,0,4.08,.56,5.82,1.67,1.74,1.12,2.98,2.66,3.7,4.64l-3.02,1.41c-.63-1.41-1.53-2.52-2.71-3.32-1.18-.8-2.49-1.2-3.94-1.2s-2.54,.36-3.39,1.08c-.85,.72-1.27,1.63-1.27,2.73,0,.85,.22,1.52,.66,2.03,.44,.5,.95,.88,1.53,1.13,.58,.25,1.09,.44,1.53,.57l4.19,1.23c2.04,.6,3.64,1.52,4.78,2.78,1.15,1.26,1.72,2.73,1.72,4.43,0,1.38-.38,2.62-1.16,3.72-.77,1.1-1.83,1.96-3.18,2.57-1.35,.61-2.91,.92-4.67,.92h0Zm23.99,0c-2.42,0-4.54-.61-6.36-1.84-1.82-1.23-3.14-2.89-3.96-5l2.97-1.41c.72,1.54,1.74,2.76,3.04,3.68,1.3,.91,2.74,1.37,4.31,1.37s2.78-.37,3.82-1.11c1.04-.74,1.56-1.7,1.56-2.9,0-.88-.25-1.58-.75-2.1-.5-.52-1.08-.92-1.74-1.2-.66-.28-1.24-.49-1.74-.61l-3.63-1.04c-2.33-.66-4.01-1.59-5.04-2.78-1.04-1.19-1.56-2.58-1.56-4.15,0-1.48,.38-2.76,1.13-3.86,.75-1.1,1.77-1.95,3.06-2.54,1.29-.6,2.72-.9,4.29-.9,2.14,0,4.08,.56,5.82,1.67,1.74,1.12,2.98,2.66,3.7,4.64l-3.02,1.41c-.63-1.41-1.53-2.52-2.71-3.32-1.18-.8-2.49-1.2-3.94-1.2s-2.54,.36-3.39,1.08c-.85,.72-1.27,1.63-1.27,2.73,0,.85,.22,1.52,.66,2.03,.44,.5,.95,.88,1.53,1.13,.58,.25,1.09,.44,1.53,.57l4.19,1.23c2.04,.6,3.64,1.52,4.78,2.78,1.15,1.26,1.72,2.73,1.72,4.43,0,1.38-.39,2.62-1.16,3.72-.77,1.1-1.83,1.96-3.18,2.57-1.35,.61-2.91,.92-4.67,.92h0Zm15.22-.57v-25.26h3.53v25.26h-3.53Zm0-29.93v-5.18h3.53v5.18h-3.53Zm22.62,30.49c-2.39,0-4.56-.57-6.5-1.72-1.95-1.15-3.5-2.72-4.64-4.71-1.15-2-1.72-4.27-1.72-6.81s.57-4.76,1.7-6.74c1.13-1.98,2.66-3.54,4.6-4.69,1.93-1.15,4.12-1.72,6.58-1.72s4.64,.57,6.57,1.7c1.93,1.13,3.46,2.69,4.57,4.67,1.12,1.98,1.67,4.24,1.67,6.79s-.58,4.86-1.74,6.86c-1.16,2-2.71,3.56-4.64,4.69-1.93,1.13-4.08,1.7-6.43,1.7h0Zm0-3.53c1.7,0,3.23-.42,4.6-1.27,1.37-.85,2.45-2.01,3.25-3.49,.8-1.48,1.2-3.13,1.2-4.95s-.4-3.46-1.2-4.9c-.8-1.45-1.89-2.59-3.25-3.44-1.37-.85-2.9-1.27-4.6-1.27s-3.23,.42-4.6,1.27c-1.37,.85-2.46,2-3.28,3.44-.82,1.45-1.23,3.08-1.23,4.9s.41,3.47,1.23,4.95c.82,1.48,1.91,2.64,3.28,3.49,1.37,.85,2.9,1.27,4.6,1.27h0Zm19.04,2.97v-25.26h3.54v4.9l-.8-.19c.63-1.63,1.66-2.92,3.09-3.86,1.43-.94,3.09-1.41,4.97-1.41s3.4,.41,4.83,1.23c1.43,.82,2.56,1.94,3.39,3.37,.83,1.43,1.25,3.04,1.25,4.83v16.4h-3.53v-15.04c0-1.54-.27-2.84-.82-3.91-.55-1.07-1.32-1.89-2.31-2.47-.99-.58-2.13-.87-3.42-.87s-2.44,.29-3.44,.87c-1.01,.58-1.79,1.41-2.36,2.5-.57,1.08-.85,2.38-.85,3.89v15.04h-3.54Zm34.31,.57c-1.6,0-3.03-.31-4.29-.92-1.26-.61-2.25-1.45-2.97-2.52-.72-1.07-1.08-2.29-1.08-3.68s.28-2.52,.85-3.61c.57-1.08,1.45-2,2.64-2.76,1.19-.75,2.72-1.29,4.57-1.6l9.9-1.65v3.21l-9.05,1.51c-1.82,.31-3.13,.9-3.93,1.74-.8,.85-1.2,1.85-1.2,3.02s.45,2.09,1.34,2.88c.9,.79,2.05,1.18,3.46,1.18,1.73,0,3.24-.37,4.52-1.11,1.29-.74,2.29-1.74,3.02-2.99,.72-1.26,1.08-2.65,1.08-4.19v-6.41c0-1.51-.55-2.73-1.65-3.68-1.1-.94-2.53-1.41-4.29-1.41-1.54,0-2.89,.39-4.05,1.16-1.16,.77-2.03,1.77-2.59,2.99l-3.21-1.74c.47-1.07,1.22-2.04,2.24-2.92,1.02-.88,2.19-1.58,3.51-2.1,1.32-.52,2.69-.78,4.1-.78,1.85,0,3.5,.36,4.93,1.08,1.43,.72,2.55,1.72,3.35,2.99,.8,1.27,1.2,2.74,1.2,4.41v17.34h-3.54v-5.04l.52,.52c-.44,.94-1.12,1.8-2.05,2.57-.93,.77-2.01,1.38-3.25,1.84-1.24,.46-2.6,.68-4.08,.68h0Zm19.65-.57V57.44h3.54v35.68h-3.54Zm-223.92,57.44c-2.36,0-4.49-.57-6.39-1.72-1.9-1.15-3.4-2.73-4.5-4.74-1.1-2.01-1.65-4.29-1.65-6.83s.53-4.8,1.6-6.76c1.07-1.96,2.52-3.51,4.36-4.64,1.84-1.13,3.9-1.7,6.2-1.7,1.82,0,3.45,.34,4.88,1.01,1.43,.68,2.65,1.59,3.65,2.73,1.01,1.15,1.78,2.43,2.31,3.86,.53,1.43,.8,2.9,.8,4.41,0,.31-.01,.67-.05,1.06-.03,.39-.08,.79-.14,1.2h-21.35v-3.3h19.32l-1.7,1.41c.28-1.73,.09-3.28-.59-4.64-.68-1.37-1.64-2.45-2.9-3.25-1.26-.8-2.67-1.2-4.24-1.2s-3.02,.41-4.36,1.23c-1.34,.82-2.38,1.96-3.13,3.42-.75,1.46-1.05,3.2-.9,5.21-.16,2.01,.16,3.76,.97,5.26,.8,1.49,1.9,2.65,3.3,3.46,1.4,.82,2.9,1.23,4.5,1.23,1.85,0,3.41-.44,4.67-1.32,1.26-.88,2.28-1.98,3.06-3.3l3.02,1.6c-.5,1.13-1.27,2.18-2.31,3.13-1.04,.96-2.27,1.73-3.7,2.31-1.43,.58-3.01,.87-4.74,.87h0Zm17.49-.57v-25.26h3.53v4.15l-.47-.61c.6-1.19,1.5-2.14,2.71-2.83,1.21-.69,2.68-1.04,4.41-1.04h1.6v3.53h-2.22c-1.82,0-3.28,.57-4.38,1.7-1.1,1.13-1.65,2.73-1.65,4.81v15.55h-3.53Zm22.67,0l-9.85-25.26h3.96l8.3,22.15h-1.27l8.34-22.15h4.01l-9.95,25.26h-3.53Zm17.63,0v-25.26h3.53v25.26h-3.53Zm0-29.93v-5.18h3.53v5.18h-3.53Zm22.34,30.49c-2.48,0-4.67-.58-6.55-1.74-1.88-1.16-3.36-2.74-4.43-4.74-1.07-2-1.6-4.25-1.6-6.76s.53-4.76,1.6-6.74c1.07-1.98,2.55-3.54,4.43-4.69,1.89-1.15,4.07-1.72,6.55-1.72,1.57,0,3.05,.28,4.43,.85,1.38,.57,2.61,1.33,3.68,2.29,1.07,.96,1.87,2.07,2.4,3.32l-3.21,1.65c-.63-1.35-1.59-2.45-2.87-3.3-1.29-.85-2.76-1.27-4.43-1.27s-3.17,.42-4.5,1.25c-1.34,.83-2.39,1.98-3.16,3.44-.77,1.46-1.15,3.12-1.15,4.97s.38,3.46,1.15,4.93c.77,1.46,1.82,2.62,3.16,3.46,1.34,.85,2.84,1.27,4.5,1.27s3.13-.42,4.41-1.27c1.27-.85,2.24-1.98,2.9-3.39l3.21,1.74c-.53,1.23-1.34,2.33-2.4,3.3-1.07,.97-2.29,1.74-3.68,2.31-1.38,.57-2.86,.85-4.43,.85h0Zm28.23,0c-2.36,0-4.49-.57-6.39-1.72-1.9-1.15-3.4-2.73-4.5-4.74-1.1-2.01-1.65-4.29-1.65-6.83s.53-4.8,1.6-6.76c1.07-1.96,2.52-3.51,4.36-4.64,1.84-1.13,3.9-1.7,6.2-1.7,1.82,0,3.45,.34,4.88,1.01,1.43,.68,2.65,1.59,3.65,2.73,1.01,1.15,1.78,2.43,2.31,3.86,.53,1.43,.8,2.9,.8,4.41,0,.31-.02,.67-.05,1.06-.03,.39-.08,.79-.14,1.2h-21.35v-3.3h19.32l-1.7,1.41c.28-1.73,.09-3.28-.59-4.64-.68-1.37-1.64-2.45-2.9-3.25-1.26-.8-2.67-1.2-4.24-1.2s-3.02,.41-4.36,1.23c-1.34,.82-2.38,1.96-3.13,3.42-.75,1.46-1.05,3.2-.9,5.21-.16,2.01,.16,3.76,.97,5.26,.8,1.49,1.9,2.65,3.3,3.46,1.4,.82,2.9,1.23,4.5,1.23,1.85,0,3.41-.44,4.67-1.32,1.26-.88,2.28-1.98,3.06-3.3l3.02,1.6c-.5,1.13-1.27,2.18-2.31,3.13-1.04,.96-2.27,1.73-3.7,2.31-1.43,.58-3.01,.87-4.74,.87h0Zm26.25,0c-2.42,0-4.54-.61-6.36-1.84-1.82-1.23-3.14-2.89-3.96-5l2.97-1.41c.72,1.54,1.74,2.76,3.04,3.68,1.3,.91,2.74,1.37,4.31,1.37s2.78-.37,3.82-1.11c1.04-.74,1.56-1.7,1.56-2.9,0-.88-.25-1.58-.75-2.1-.5-.52-1.08-.92-1.74-1.2-.66-.28-1.24-.49-1.74-.61l-3.63-1.04c-2.33-.66-4.01-1.59-5.04-2.78-1.04-1.19-1.56-2.58-1.56-4.15,0-1.48,.38-2.77,1.13-3.86,.75-1.1,1.78-1.95,3.06-2.55,1.29-.6,2.72-.9,4.29-.9,2.14,0,4.08,.56,5.82,1.67,1.74,1.12,2.98,2.66,3.7,4.64l-3.02,1.41c-.63-1.41-1.53-2.52-2.71-3.32-1.18-.8-2.49-1.2-3.94-1.2s-2.55,.36-3.39,1.08c-.85,.72-1.27,1.63-1.27,2.73,0,.85,.22,1.52,.66,2.03,.44,.5,.95,.88,1.53,1.13,.58,.25,1.09,.44,1.53,.57l4.19,1.22c2.04,.6,3.64,1.52,4.78,2.78,1.15,1.26,1.72,2.73,1.72,4.43,0,1.38-.38,2.62-1.15,3.72-.77,1.1-1.83,1.96-3.18,2.57-1.35,.61-2.91,.92-4.67,.92h0Zm-164.21,0c-2.23,0-4.26-.42-6.08-1.27-1.82-.85-3.36-1.99-4.62-3.42-1.26-1.43-2.15-3.01-2.69-4.74l3.39-1.27c.82,2.39,2.09,4.2,3.82,5.44,1.73,1.24,3.79,1.86,6.17,1.86,1.51,0,2.84-.24,3.98-.73,1.15-.49,2.03-1.17,2.66-2.05,.63-.88,.94-1.9,.94-3.06,0-1.73-.47-3.06-1.41-4.01-.94-.94-2.29-1.66-4.05-2.17l-6.32-1.89c-2.48-.72-4.39-1.93-5.73-3.63-1.34-1.7-2-3.63-2-5.8,0-1.85,.46-3.5,1.37-4.93,.91-1.43,2.16-2.55,3.75-3.37,1.59-.82,3.39-1.23,5.4-1.23s4,.39,5.68,1.16c1.68,.77,3.1,1.78,4.27,3.04,1.16,1.26,1.99,2.65,2.5,4.19l-3.3,1.32c-.75-2.07-1.92-3.64-3.51-4.71-1.59-1.07-3.45-1.6-5.59-1.6-1.35,0-2.54,.24-3.56,.71-1.02,.47-1.82,1.15-2.38,2.03-.57,.88-.85,1.92-.85,3.11,0,1.45,.46,2.74,1.37,3.89,.91,1.15,2.31,2,4.19,2.57l5.56,1.65c2.76,.82,4.85,2,6.27,3.53,1.41,1.54,2.12,3.47,2.12,5.8,0,1.89-.48,3.54-1.44,4.97-.96,1.43-2.29,2.55-4.01,3.37-1.71,.82-3.68,1.23-5.92,1.23h0Zm17.96-57.44v-25.26h3.53v4.15l-.47-.61c.6-1.19,1.5-2.14,2.71-2.83,1.21-.69,2.68-1.04,4.41-1.04h1.6v3.53h-2.21c-1.82,0-3.28,.57-4.38,1.7-1.1,1.13-1.65,2.73-1.65,4.81v15.55h-3.53Zm27.76,.57c-2.39,0-4.56-.57-6.5-1.72-1.95-1.15-3.5-2.72-4.64-4.71-1.15-2-1.72-4.27-1.72-6.81s.57-4.76,1.7-6.74c1.13-1.98,2.66-3.54,4.6-4.69,1.93-1.15,4.12-1.72,6.57-1.72s4.64,.57,6.58,1.7c1.93,1.13,3.46,2.69,4.57,4.67,1.11,1.98,1.67,4.24,1.67,6.79s-.58,4.86-1.74,6.86c-1.16,2-2.71,3.56-4.64,4.69-1.93,1.13-4.08,1.7-6.43,1.7h0Zm0-3.53c1.7,0,3.23-.42,4.6-1.27,1.37-.85,2.45-2.01,3.25-3.49,.8-1.48,1.2-3.13,1.2-4.95s-.4-3.46-1.2-4.9c-.8-1.45-1.88-2.59-3.25-3.44-1.37-.85-2.9-1.27-4.6-1.27s-3.23,.42-4.6,1.27c-1.37,.85-2.46,2-3.28,3.44-.82,1.45-1.22,3.08-1.22,4.9s.41,3.47,1.22,4.95c.82,1.48,1.91,2.64,3.28,3.49,1.37,.85,2.9,1.27,4.6,1.27h0Zm-57.55,2.97V58.01h12.07c2.29,0,4.3,.45,6.03,1.34,1.73,.9,3.07,2.15,4.03,3.77,.96,1.62,1.44,3.5,1.44,5.63s-.48,4.01-1.44,5.61c-.96,1.6-2.29,2.85-4.01,3.75-1.71,.9-3.73,1.34-6.06,1.34h-8.3v13.67h-3.77Zm3.77-17.2h8.48c1.51,0,2.83-.29,3.96-.87,1.13-.58,2.01-1.41,2.64-2.5,.63-1.08,.94-2.36,.94-3.84s-.31-2.75-.94-3.82c-.63-1.07-1.51-1.89-2.64-2.47-1.13-.58-2.45-.87-3.96-.87h-8.48v14.38h0Zm42.42-39.11c-1.6,0-3.03-.31-4.29-.92-1.26-.61-2.25-1.45-2.97-2.52-.72-1.07-1.08-2.29-1.08-3.68s.28-2.52,.85-3.61c.57-1.08,1.45-2,2.64-2.76,1.19-.75,2.72-1.29,4.57-1.6l9.9-1.65v3.2l-9.05,1.51c-1.82,.31-3.13,.9-3.94,1.74-.8,.85-1.2,1.85-1.2,3.02s.45,2.09,1.34,2.88c.9,.79,2.05,1.18,3.46,1.18,1.73,0,3.24-.37,4.52-1.11,1.29-.74,2.29-1.74,3.02-2.99,.72-1.26,1.08-2.66,1.08-4.19v-6.41c0-1.51-.55-2.73-1.65-3.68-1.1-.94-2.53-1.41-4.29-1.41-1.54,0-2.89,.38-4.05,1.16-1.16,.77-2.03,1.77-2.59,2.99l-3.21-1.74c.47-1.07,1.22-2.04,2.24-2.92,1.02-.88,2.19-1.58,3.51-2.1,1.32-.52,2.69-.78,4.1-.78,1.85,0,3.5,.36,4.92,1.08,1.43,.72,2.55,1.72,3.35,2.99,.8,1.27,1.2,2.74,1.2,4.41v17.35h-3.53v-5.04l.52,.52c-.44,.94-1.12,1.8-2.05,2.57-.93,.77-2.01,1.38-3.25,1.84-1.24,.46-2.6,.68-4.08,.68h0Zm19.65-.57V.57h3.53V25.55l-1.51-.24,14.19-14.33h4.57l-9.9,10.13,10.79,15.13h-4.24l-10.13-14,2.26,.19-7.21,7.45,1.18-2.92v9.29h-3.53Zm25.83,0V.57h3.53V15.89l-.8-.19c.63-1.63,1.66-2.92,3.09-3.86,1.43-.94,3.09-1.41,4.97-1.41s3.4,.41,4.83,1.23c1.43,.82,2.56,1.94,3.39,3.37,.83,1.43,1.25,3.04,1.25,4.83v16.4h-3.53v-15.04c0-1.54-.28-2.84-.85-3.91-.57-1.07-1.34-1.89-2.33-2.48-.99-.58-2.11-.87-3.37-.87s-2.39,.29-3.39,.87c-1.01,.58-1.8,1.41-2.38,2.5-.58,1.08-.87,2.38-.87,3.89v15.04h-3.53Zm38.84,.57c-2.39,0-4.56-.57-6.5-1.72-1.95-1.15-3.5-2.72-4.64-4.71-1.15-2-1.72-4.27-1.72-6.81s.57-4.76,1.7-6.74c1.13-1.98,2.66-3.54,4.6-4.69,1.93-1.15,4.12-1.72,6.57-1.72s4.64,.57,6.57,1.7c1.93,1.13,3.46,2.69,4.57,4.67,1.12,1.98,1.67,4.24,1.67,6.79s-.58,4.86-1.74,6.86c-1.16,2-2.71,3.56-4.64,4.69-1.93,1.13-4.08,1.7-6.43,1.7h0Zm0-3.53c1.7,0,3.23-.42,4.6-1.27,1.37-.85,2.45-2.01,3.25-3.49,.8-1.48,1.2-3.13,1.2-4.95s-.4-3.46-1.2-4.9c-.8-1.45-1.89-2.59-3.25-3.44-1.37-.85-2.9-1.27-4.6-1.27s-3.23,.42-4.6,1.27c-1.37,.85-2.46,2-3.28,3.44-.82,1.45-1.23,3.08-1.23,4.9s.41,3.47,1.23,4.95c.82,1.48,1.91,2.64,3.28,3.49,1.37,.85,2.9,1.27,4.6,1.27h0Zm31.81,3.53c-2.17,0-4.12-.49-5.87-1.48-1.74-.99-3.06-2.4-3.94-4.22l.57-.52v5.66h-3.54V.57h3.54V16.64l-.57-.99c1.01-1.6,2.35-2.87,4.03-3.82,1.68-.94,3.61-1.41,5.77-1.41,2.39,0,4.52,.57,6.39,1.72,1.87,1.15,3.35,2.71,4.43,4.69,1.08,1.98,1.63,4.24,1.63,6.79s-.54,4.77-1.63,6.76c-1.08,1.99-2.56,3.57-4.43,4.71-1.87,1.15-4,1.72-6.39,1.72h0Zm-.19-3.53c1.7,0,3.21-.42,4.55-1.27,1.34-.85,2.39-2,3.16-3.46,.77-1.46,1.16-3.1,1.16-4.92s-.38-3.5-1.16-4.95c-.77-1.45-1.82-2.59-3.16-3.44-1.34-.85-2.85-1.27-4.55-1.27s-3.23,.42-4.6,1.27c-1.37,.85-2.45,2-3.25,3.46-.8,1.46-1.2,3.1-1.2,4.93s.4,3.46,1.2,4.92c.8,1.46,1.88,2.62,3.25,3.46,1.37,.85,2.9,1.27,4.6,1.27h0Zm26.16,3.53c-1.6,0-3.03-.31-4.29-.92-1.26-.61-2.25-1.45-2.97-2.52-.72-1.07-1.08-2.29-1.08-3.68s.28-2.52,.85-3.61c.57-1.08,1.45-2,2.64-2.76,1.19-.75,2.72-1.29,4.57-1.6l9.9-1.65v3.2l-9.05,1.51c-1.82,.31-3.13,.9-3.94,1.74-.8,.85-1.2,1.85-1.2,3.02s.45,2.09,1.34,2.88c.9,.79,2.05,1.18,3.46,1.18,1.73,0,3.24-.37,4.53-1.11,1.29-.74,2.29-1.74,3.02-2.99,.72-1.26,1.08-2.66,1.08-4.19v-6.41c0-1.51-.55-2.73-1.65-3.68-1.1-.94-2.53-1.41-4.29-1.41-1.54,0-2.89,.38-4.05,1.16-1.16,.77-2.03,1.77-2.59,2.99l-3.21-1.74c.47-1.07,1.22-2.04,2.24-2.92,1.02-.88,2.19-1.58,3.51-2.1,1.32-.52,2.69-.78,4.1-.78,1.85,0,3.5,.36,4.92,1.08,1.43,.72,2.55,1.72,3.35,2.99,.8,1.27,1.2,2.74,1.2,4.41v17.35h-3.53v-5.04l.52,.52c-.44,.94-1.12,1.8-2.05,2.57-.93,.77-2.01,1.38-3.25,1.84-1.24,.46-2.6,.68-4.08,.68Z"/>
    </g>
  </g>
</svg>